<svg xmlns="http://www.w3.org/2000/svg" xmlns:xlink="http://www.w3.org/1999/xlink" xmlns:lucid="lucid" width="1160" height="1071"><g transform="translate(-100 -60)" lucid:page-tab-id="0_0"><path d="M0 0h1884.2v1455.98H0z" fill="#fff"/><path d="M243.3 88c0-4.42 3.6-8 8-8h144c4.42 0 8 3.58 8 8v104c0 4.42-3.58 8-8 8h-144c-4.4 0-8-3.58-8-8z" stroke="#000" stroke-opacity="0" stroke-width="2" fill="#a3d977"/><use xlink:href="#a" transform="matrix(1,0,0,1,243.30535068328953,80) translate(31.57999999999999 63.15)"/><path d="M480 88c0-4.42 3.58-8 8-8h144c4.42 0 8 3.58 8 8v104c0 4.42-3.58 8-8 8H488c-4.42 0-8-3.58-8-8z" stroke="#000" stroke-opacity="0" stroke-width="2" fill="#a3d977"/><use xlink:href="#b" transform="matrix(1,0,0,1,480,80) translate(36.05499999999999 63.15)"/><path d="M960 88c0-4.42 3.58-8 8-8h144c4.42 0 8 3.58 8 8v104c0 4.42-3.58 8-8 8H968c-4.42 0-8-3.58-8-8z" stroke="#000" stroke-opacity="0" stroke-width="2" fill="#83bbe5"/><use xlink:href="#c" transform="matrix(1,0,0,1,959.9999999999999,80) translate(20.029999999999994 63.15)"/><path d="M720 368c0-4.42 3.58-8 8-8h144c4.42 0 8 3.58 8 8v104c0 4.42-3.58 8-8 8H728c-4.42 0-8-3.58-8-8z" stroke="#000" stroke-opacity="0" stroke-width="2" fill="#83bbe5"/><use xlink:href="#d" transform="matrix(1,0,0,1,720,360) translate(37.004999999999995 63.15)"/><path d="M323.3 200v920" fill="none"/><path d="M323.3 200v9.9m0 9.88v19.8m0 9.88v19.8m0 9.88v19.78m0 9.9v19.78m0 9.9v19.78m0 9.9v19.78m0 9.9v19.77m0 9.9v19.78m0 9.9V477m0 9.88v19.8m0 9.88v19.78m0 9.9v19.78m0 9.9v19.78m0 9.9v19.78m0 9.9v19.77m0 9.9v19.78m0 9.9v19.78m0 9.9v19.8m0 9.88v19.78m0 9.9v19.78m0 9.9v19.78m0 9.9v19.78m0 9.9v19.77m0 9.9v19.78m0 9.9v19.78m0 9.9v19.78m0 9.9v19.78m0 9.9v19.78m0 9.9v19.78m0 9.9v19.78m0 9.9v9.88" stroke="#999" stroke-width="2" fill="none"/><path fill="#999"/><path d="M560 200v920" fill="none"/><path d="M560 200v9.9m0 9.88v19.8m0 9.88v19.8m0 9.88v19.78m0 9.9v19.78m0 9.9v19.78m0 9.9v19.78m0 9.9v19.77m0 9.9v19.78m0 9.9V477m0 9.88v19.8m0 9.88v19.78m0 9.9v19.78m0 9.9v19.78m0 9.9v19.78m0 9.9v19.77m0 9.9v19.78m0 9.9v19.78m0 9.9v19.8m0 9.88v19.78m0 9.9v19.78m0 9.9v19.78m0 9.9v19.78m0 9.9v19.77m0 9.9v19.78m0 9.9v19.78m0 9.9v19.78m0 9.9v19.78m0 9.9v19.78m0 9.9v19.78m0 9.9v19.78m0 9.9v9.88" stroke="#999" stroke-width="2" fill="none"/><path fill="#999"/><path d="M303.3 228c0-4.42 3.6-8 8-8h24c4.42 0 8 3.58 8 8v44c0 4.42-3.58 8-8 8h-24c-4.4 0-8-3.58-8-8z" stroke="#000" stroke-opacity="0" stroke-width="2" fill="#a3d977"/><path d="M1040 200v920" fill="none"/><path d="M1040 200v9.9m0 9.88v19.8m0 9.88v19.8m0 9.88v19.78m0 9.9v19.78m0 9.9v19.78m0 9.9v19.78m0 9.9v19.77m0 9.9v19.78m0 9.9V477m0 9.88v19.8m0 9.88v19.78m0 9.9v19.78m0 9.9v19.78m0 9.9v19.78m0 9.9v19.77m0 9.9v19.78m0 9.9v19.78m0 9.9v19.8m0 9.88v19.78m0 9.9v19.78m0 9.9v19.78m0 9.9v19.78m0 9.9v19.77m0 9.9v19.78m0 9.9v19.78m0 9.9v19.78m0 9.9v19.78m0 9.9v19.78m0 9.9v19.78m0 9.9v19.78m0 9.9v9.88" stroke="#999" stroke-width="2" fill="none"/><path fill="#999"/><path d="M343.04 226.68h338.48c.1 0 .17-.07.17-.16 0-.1.06-.16.15-.16h320.24" stroke="#000" stroke-width="2" fill="none"/><path d="M343.04 226.68l-.2-1h.2zM1017.1 226.36l-14.27 4.64v-9.27z"/><path d="M1020.33 226.36l-18.5 6v-12zm-16.5 3.26l10.03-3.26-10.03-3.26z"/><use xlink:href="#e" transform="matrix(1,0,0,1,739.2584264206266,200.76119551754599) translate(0.005000000000002558 14.4)"/><path d="M1020 228c0-4.42 3.58-8 8-8h24c4.42 0 8 3.58 8 8v44c0 4.42-3.58 8-8 8h-24c-4.42 0-8-3.58-8-8z" stroke="#000" stroke-opacity="0" stroke-width="2" fill="#83bbe5"/><path d="M360.9 275.1h659.73" fill="none"/><path d="M360.9 275.1h3m4 0h6m4 0h6m4 0h6m4 0h6m4 0h6m4 0h6m3.98 0h6m4 0h6m4 0h6m4 0h6m4 0h5.98m4 0h6m4 0h6m4 0h6m4 0h6m4 0h5.98m4 0h6m4 0h6m4 0h6m4 0h6m3.98 0h6m4 0h6m4 0h6m4 0h6m4 0h5.98m4 0h6m4 0h6m4 0h6m4 0h6m3.98 0h6m4 0h6m4 0h6m4 0h6m4 0h6m3.98 0h6m4 0h6m4 0h6m4 0h6m4 0h5.98m4 0h6m4 0h6m4 0h6m4 0h6m3.98 0h6m4 0h6m4 0h6m4 0h6m4 0h5.98m4 0h6m4 0h6m4 0h6m4 0h6m4 0h5.98m4 0h6m4 0h6m4 0h6m4 0h6m3.98 0h6m4 0h6m4 0h6m4 0h6m4 0h5.98m4 0h6m4 0h6m4 0h6m4 0h3" stroke="#000" stroke-width="2" fill="none"/><path d="M360.18 279.75l-14.27-4.64 14.28-4.62z"/><path d="M361.18 281.13l-18.5-6.02 18.5-6zm-12.03-6.02l10.03 3.27v-6.5zM1021.3 276.1h-.67v-1z"/><use xlink:href="#f" transform="matrix(1,0,0,1,733.1361434825304,249.513961) translate(0.005000000000002558 14.4)"/><use xlink:href="#g" transform="matrix(1,0,0,1,733.1361434825304,249.513961) translate(49.955000000000005 14.4)"/><use xlink:href="#h" transform="matrix(1,0,0,1,733.1361434825304,249.513961) translate(69.95500000000001 14.4)"/><use xlink:href="#i" transform="matrix(1,0,0,1,733.1361434825304,249.513961) translate(101.85499999999999 14.4)"/><path d="M540 408c0-4.42 3.58-8 8-8h24c4.42 0 8 3.58 8 8v24c0 4.42-3.58 8-8 8h-24c-4.42 0-8-3.58-8-8z" stroke="#000" stroke-opacity="0" stroke-width="2" fill="#a3d977"/><path d="M580 420h121.76" stroke="#000" stroke-width="2" fill="none"/><path/><path d="M716.76 420l-14.26 4.64v-9.28z"/><path d="M720 420l-18.5 6v-12zm-16.5 3.26l10.03-3.26-10.03-3.26z"/><use xlink:href="#j" transform="matrix(1,0,0,1,603.8833333333333,394.4) translate(0.005000000000002558 14.4)"/><path d="M540 508c0-4.42 3.58-8 8-8h24c4.42 0 8 3.58 8 8v64c0 4.42-3.58 8-8 8h-24c-4.42 0-8-3.58-8-8z" stroke="#000" stroke-opacity="0" stroke-width="2" fill="#a3d977"/><path d="M1020 508c0-4.42 3.58-8 8-8h24c4.42 0 8 3.58 8 8v44c0 4.42-3.58 8-8 8h-24c-4.42 0-8-3.58-8-8z" stroke="#000" stroke-opacity="0" stroke-width="2" fill="#83bbe5"/><path d="M579.37 504.9h423.02" stroke="#000" stroke-width="2" fill="none"/><path d="M579.37 504.9l-.67-1h.67zM1017.4 504.9l-14.27 4.62v-9.27z"/><path d="M1020.63 504.9l-18.5 6v-12.03zm-16.5 3.24l10.03-3.25-10.03-3.27z"/><use xlink:href="#k" transform="matrix(1,0,0,1,615.3416666666666,508.8860389999999) translate(0.0049999999999954525 14.4)"/><use xlink:href="#l" transform="matrix(1,0,0,1,615.3416666666666,508.8860389999999) translate(82.75500000000001 14.4)"/><use xlink:href="#m" transform="matrix(1,0,0,1,615.3416666666666,508.8860389999999) translate(102.75500000000001 14.4)"/><use xlink:href="#n" transform="matrix(1,0,0,1,615.3416666666666,508.8860389999999) translate(145.65500000000003 14.4)"/><path d="M800 480v531.96" fill="none"/><path d="M800 480v9.85m0 9.85v19.7m0 9.86v19.7m0 9.85v19.7m0 9.86v19.7m0 9.86v19.7m0 9.85v19.7m0 9.85v19.7m0 9.86v19.7m0 9.85v19.7m0 9.85v19.7m0 9.86v19.7m0 9.85v19.7m0 9.84v19.7m0 9.86v19.7m0 9.85v19.7m0 9.85v19.7m0 9.86v19.7m0 9.85v9.86" stroke="#999" stroke-width="2" fill="none"/><path fill="#999"/><path d="M801 1011.96h-2 2z" fill="#999"/><path d="M540 628c0-4.42 3.58-8 8-8h24c4.42 0 8 3.58 8 8v64c0 4.42-3.58 8-8 8h-24c-4.42 0-8-3.58-8-8z" stroke="#000" stroke-opacity="0" stroke-width="2" fill="#a3d977"/><path d="M780 628c0-4.42 3.58-8 8-8h24c4.42 0 8 3.58 8 8v44c0 4.42-3.58 8-8 8h-24c-4.42 0-8-3.58-8-8z" stroke="#000" stroke-opacity="0" stroke-width="2" fill="#83bbe5"/><path d="M579.37 624.9H762.4" stroke="#000" stroke-width="2" fill="none"/><path d="M579.37 624.9l-.67-1h.67zM777.4 624.9l-14.27 4.62v-9.27z"/><path d="M780.63 624.9l-18.5 6v-12.03zm-16.5 3.24l10.03-3.25-10.03-3.27z"/><use xlink:href="#o" transform="matrix(1,0,0,1,655.1250000000001,599.2860390000001) translate(0.004999999999999005 14.4)"/><path d="M820 672h197.67c.18 0 .33.15.33.33v.3c0 .02.02.04.04.04" stroke="#000" stroke-width="2" fill="none"/><path d="M819.8 673l.2-1v1zM1020 672.67l-19.16 10.16-.94-1.77 16.18-8.58-15.3-10.04 1.08-1.67z"/><use xlink:href="#p" transform="matrix(1,0,0,1,886.5495016616019,676) translate(0.005000000000002558 14.4)"/><use xlink:href="#q" transform="matrix(1,0,0,1,886.5495016616019,676) translate(46.955000000000005 14.4)"/><path d="M1020 668c0-4.42 3.58-8 8-8h24c4.42 0 8 3.58 8 8v24c0 4.42-3.58 8-8 8h-24c-4.42 0-8-3.58-8-8z" stroke="#000" stroke-opacity="0" stroke-width="2" fill="#83bbe5"/><path d="M540 328c0-4.42 3.58-8 8-8h24c4.42 0 8 3.58 8 8v44c0 4.42-3.58 8-8 8h-24c-4.42 0-8-3.58-8-8z" stroke="#000" stroke-opacity="0" stroke-width="2" fill="#b2b2b2"/><path d="M303.3 748c0-4.42 3.6-8 8-8h24c4.42 0 8 3.58 8 8v64c0 4.42-3.58 8-8 8h-24c-4.4 0-8-3.58-8-8z" stroke="#000" stroke-opacity="0" stroke-width="2" fill="#a3d977"/><path d="M1020 748c0-4.42 3.58-8 8-8h24c4.42 0 8 3.58 8 8v44c0 4.42-3.58 8-8 8h-24c-4.42 0-8-3.58-8-8z" stroke="#000" stroke-opacity="0" stroke-width="2" fill="#83bbe5"/><path d="M340.96 742.34h663.15" stroke="#000" stroke-width="2" fill="none"/><path d="M340.96 742.34l-1.48-1h1.48zM1019.1 742.34l-14.26 4.64v-9.27z"/><path d="M1022.34 742.34l-18.5 6v-12zm-16.5 3.26l10.03-3.26-10.03-3.26z"/><use xlink:href="#r" transform="matrix(1,0,0,1,607.8792868474093,716.743146) translate(0.005000000000002558 14.4)"/><path d="M1022.34 797.66h-660.8" fill="none"/><path d="M1022.34 797.66h-3m-4 0h-6m-4.02 0h-6m-4 0h-6.02m-4 0h-6m-4 0h-6.02m-4 0h-6m-4.02 0h-6m-4 0h-6.02m-4 0h-6m-4 0h-6.02m-4 0h-6m-4.02 0h-6m-4 0h-6.02m-4 0h-6m-4.02 0h-6m-4 0h-6m-4.02 0h-6m-4 0h-6.02m-4 0h-6m-4.02 0h-6m-4 0h-6.02m-4 0h-6m-4 0h-6.02m-4 0h-6m-4.02 0h-6m-4 0H759m-4 0h-6m-4 0H739m-4 0h-6m-4.02 0h-6m-4 0h-6.02m-4 0h-6m-4 0h-6.02m-4 0h-6m-4.02 0h-6m-4 0h-6.02m-4 0h-6m-4 0h-6.02m-4 0h-6m-4.02 0h-6m-4 0h-6.02m-4 0h-6m-4 0h-6.02m-4 0h-6m-4.02 0h-6m-4 0h-6.02m-4 0h-6m-4.02 0h-6m-4 0h-6m-4.02 0h-6m-4 0h-6.02m-4 0h-6m-4.02 0h-6m-4 0h-6.02m-4 0h-6m-4 0h-6.02m-4 0h-6m-4.02 0h-6m-4 0h-6.02m-4 0h-6m-4 0h-6.02m-4 0h-6m-4.02 0h-6m-4 0h-6.02m-4 0h-6m-4 0h-3.02" stroke="#000" stroke-width="2" fill="none"/><path d="M1023.83 798.66h-1.5v-1zM360.8 802.3l-14.26-4.64 14.27-4.64z"/><path d="M361.8 803.67l-18.5-6 18.5-6.02zm-12.02-6l10.03 3.25v-6.52z"/><use xlink:href="#f" transform="matrix(1,0,0,1,604.3773206075577,772.0568540000002) translate(0.0049999999999954525 14.4)"/><use xlink:href="#g" transform="matrix(1,0,0,1,604.3773206075577,772.0568540000002) translate(49.955 14.4)"/><use xlink:href="#h" transform="matrix(1,0,0,1,604.3773206075577,772.0568540000002) translate(69.955 14.4)"/><use xlink:href="#s" transform="matrix(1,0,0,1,604.3773206075577,772.0568540000002) translate(101.85499999999999 14.4)"/><use xlink:href="#t" transform="matrix(1,0,0,1,604.3773206075577,772.0568540000002) translate(141.855 14.4)"/><path d="M780 868c0-4.42 3.58-8 8-8h24c4.42 0 8 3.58 8 8v24c0 4.42-3.58 8-8 8h-24c-4.42 0-8-3.58-8-8z" stroke="#000" stroke-opacity="0" stroke-width="2" fill="#83bbe5"/><path d="M303.3 868c0-4.42 3.6-8 8-8h24c4.42 0 8 3.58 8 8v24c0 4.42-3.58 8-8 8h-24c-4.4 0-8-3.58-8-8z" stroke="#000" stroke-opacity="0" stroke-width="2" fill="#a3d977"/><path d="M340.96 862.34H764.1" stroke="#000" stroke-width="2" fill="none"/><path d="M340.96 862.34l-1.48-1h1.48zM779.1 862.34l-14.26 4.64v-9.27z"/><path d="M782.34 862.34l-18.5 6v-12zm-16.5 3.26l10.03-3.26-10.03-3.26z"/><use xlink:href="#u" transform="matrix(1,0,0,1,488.7386666666666,836.7431459999999) translate(0.004999999999999005 14.4)"/><path d="M303.3 948c0-4.42 3.6-8 8-8h24c4.42 0 8 3.58 8 8v24c0 4.42-3.58 8-8 8h-24c-4.4 0-8-3.58-8-8z" stroke="#000" stroke-opacity="0" stroke-width="2" fill="#a3d977"/><path d="M342.7 944.93h419.68" stroke="#000" stroke-width="2" fill="none"/><path d="M342.7 944.93l-.02-.04-.65-.97h.66zM777.38 944.93l-14.26 4.64v-9.27z"/><path d="M780.62 944.93l-18.5 6v-12zm-16.5 3.26l10.03-3.27-10.03-3.26z"/><use xlink:href="#v" transform="matrix(1,0,0,1,485.7416666666666,919.3319627993784) translate(0.004999999999999005 14.4)"/><path d="M780 948c0-4.42 3.58-8 8-8h24c4.42 0 8 3.58 8 8v24c0 4.42-3.58 8-8 8h-24c-4.42 0-8-3.58-8-8z" stroke="#000" stroke-opacity="0" stroke-width="2" fill="#83bbe5"/><path d="M775 1019.96c0-4.42 3.58-8 8-8h34c4.42 0 8 3.58 8 8v24c0 4.42-3.58 8-8 8h-34c-4.42 0-8-3.58-8-8z" fill="none"/><path d="M780 1015.96l40 32m0-32l-40 32" stroke="#666" stroke-width="8" fill="none"/><path d="M303.3 1019.96c0-4.42 3.6-8 8-8h24c4.42 0 8 3.58 8 8v48.02c0 4.42-3.58 8-8 8h-24c-4.4 0-8-3.58-8-8z" stroke="#000" stroke-opacity="0" stroke-width="2" fill="#b2b2b2"/><path d="M651 370.27l-1.1 3.4-2.92 2.14-1.9.3H597.6v-2h47.32l1.26-.2 2-1.45.82-2.5v-9.08h2zm-2.43-45.16l2.12 2.92.3 1.9v9.35h-2v-9.2l-.2-1.26-1.46-2-2.5-.8H579.4v-2h65.76zM579.4 325l-.03-.1-.6-.9h.62zM596.87 379.75l-14.26-4.64 14.27-4.62z" fill="#999"/><path d="M597.87 381.13l-18.5-6.02 18.5-6zm-12.03-6.02l10.03 3.27v-6.5z" fill="#999"/><use xlink:href="#w" transform="matrix(1,0,0,1,600.05,339.2668741277128) translate(0.005000000000002558 14.4)"/><use xlink:href="#x" transform="matrix(1,0,0,1,600.05,339.2668741277128) translate(66.905 14.4)"/><path d="M411 1066.25l-1.1 3.4-2.92 2.14-1.9.3H360.9v-2h44.02l1.26-.2 2-1.47.82-2.5v-9.73h2zm-2.43-46.9l2.12 2.9.3 1.9v10.45h-2v-10.3l-.2-1.25-1.46-2-2.5-.82h-61.68v-2h62z" fill="#999"/><path d="M343.16 1019.23l-.2-1h.2zM360.18 1075.73l-14.27-4.64 14.28-4.64z" fill="#999"/><path d="M361.18 1077.1l-18.5-6 18.5-6.02zm-12.03-6l10.03 3.25v-6.5z" fill="#999"/><use xlink:href="#y" transform="matrix(1,0,0,1,418,1036.0692585784757) translate(0.005000000000002558 12.444444444444446)"/><use xlink:href="#z" transform="matrix(1,0,0,1,359.5,1034.602591911809) translate(0.005000000000002558 14.4)"/><use xlink:href="#x" transform="matrix(1,0,0,1,359.5,1034.602591911809) translate(68.005 14.4)"/><path d="M120 308c0-4.42 3.58-8 8-8h84c4.42 0 8 3.58 8 8v4.93c0 3.9-2.24 9.3-5 12.07-2.76 2.76-8.17 5-12.07 5H128c-4.42 0-8-3.58-8-8z" fill="#999"/><path d="M120 308c0-4.42 3.58-8 8-8h1104c4.42 0 8 3.58 8 8v784c0 4.42-3.58 8-8 8H128c-4.42 0-8-3.58-8-8z" stroke="#000" stroke-width="2" fill="none"/><path d="M220 300v20l-10 10h-90" stroke="#000" stroke-width="2" fill="#999"/><use xlink:href="#A" transform="matrix(1,0,0,1,128,300) translate(18.984567901234566 18.11111111111111)"/><use xlink:href="#B" transform="matrix(1,0,0,1,132,338) translate(9.141975308641982 18.11111111111111)"/><path d="M818.44 623.5H855c2.76 0 5 2.24 5 5V653c0 2.76-2.24 5-5 5h-16.76" stroke="#000" stroke-width="2" fill="none"/><path d="M818.44 623.5l-.68-1h.68zM837.5 662.64L823.24 658l14.26-4.64z"/><path d="M838.5 664l-18.5-6 18.5-6zm-12.03-6l10.03 3.26v-6.52z"/><use xlink:href="#C" transform="matrix(1,0,0,1,868.0000000000001,629.1703699276144) translate(0.005000000000002558 14.4)"/><path d="M819.44 865.24h35c2.77 0 5 2.24 5 5v22.42c0 2.76-2.23 5-5 5H835.9" stroke="#000" stroke-width="2" fill="none"/><path d="M819.44 865.24l-.07-.35-.43-.66h.5zM835.16 902.3l-14.27-4.64 14.26-4.64z"/><path d="M836.16 903.67l-18.5-6 18.5-6.02zm-12.03-6l10.03 3.25v-6.52z"/><use xlink:href="#D" transform="matrix(1,0,0,1,867.4436192314424,871.5438844276772) translate(0.005000000000002558 14.4)"/><path d="M818.45 943.52h35.76c2.77 0 5 2.23 5 5v21.84c0 2.76-2.23 5-5 5h-16.76" stroke="#000" stroke-width="2" fill="none"/><path d="M818.45 943.52l-.68-1h.68zM836.7 980l-14.26-4.64 14.27-4.64z"/><path d="M837.7 981.37l-18.5-6 18.5-6.02zm-12.02-6l10.03 3.25v-6.52z"/><use xlink:href="#E" transform="matrix(1,0,0,1,867.2065873791723,948.2577984375246) translate(0.0049999999999954525 14.4)"/><path d="M1060 748.78h35c2.76 0 5 2.23 5 5v30.16c0 2.76-2.24 5-5 5h-16.76" stroke="#000" stroke-width="2" fill="none"/><path d="M1059.95 747.78h.05v.22zM1077.5 793.58l-14.26-4.64 14.26-4.63z"/><path d="M1078.5 794.95l-18.5-6 18.5-6.02zm-12.03-6l10.03 3.25v-6.52z"/><g><use xlink:href="#F" transform="matrix(1,0,0,1,1108,758.0583172293666) translate(0.005000000000002558 14.4)"/></g><path d="M1059.96 227.78H1095c2.76 0 5 2.24 5 5v21.94c0 2.77-2.24 5-5 5h-16.76" stroke="#000" stroke-width="2" fill="none"/><path d="M1059.96 227.78l-.2-1h.2zM1077.5 264.36l-14.26-4.64 14.26-4.63z"/><path d="M1078.5 265.74l-18.5-6.02 18.5-6zm-12.03-6.02l10.03 3.26v-6.52z"/><g><use xlink:href="#G" transform="matrix(1,0,0,1,1108,230.93028583798105) translate(0.005000000000002558 17.06666666666667)"/></g><path d="M1060 508h45c2.76 0 5 2.24 5 5v34.8c0 2.76-2.24 5-5 5h-26.92" stroke="#000" stroke-width="2" fill="none"/><path d="M1059.8 507h.2v1zM1077.34 557.43l-14.26-4.63 14.26-4.64z"/><path d="M1078.34 558.8l-18.5-6 18.5-6.02zm-12.03-6l10.04 3.25v-6.5z"/><g><use xlink:href="#H" transform="matrix(1,0,0,1,1118,519.6783880393092) translate(0.005000000000002558 14.4)"/></g><defs><path d="M96-169c-40 0-48 33-48 73s9 75 48 75c24 0 41-14 43-38l32 2c-6 37-31 61-74 61-59 0-76-41-82-99-10-93 101-131 147-64 4 7 5 14 7 22l-32 3c-4-21-16-35-41-35" id="I"/><path d="M33-154v-36h34v36H33zM33 0v-36h34V0H33" id="J"/><path d="M212-179c-10-28-35-45-73-45-59 0-87 40-87 99 0 60 29 101 89 101 43 0 62-24 78-52l27 14C228-24 195 4 139 4 59 4 22-46 18-125c-6-104 99-153 187-111 19 9 31 26 39 46" id="K"/><path d="M100-194c62-1 85 37 85 99 1 63-27 99-86 99S16-35 15-95c0-66 28-99 85-99zM99-20c44 1 53-31 53-75 0-43-8-75-51-75s-53 32-53 75 10 74 51 75" id="L"/><path d="M117-194c89-4 53 116 60 194h-32v-121c0-31-8-49-39-48C34-167 62-67 57 0H25l-1-190h30c1 10-1 24 2 32 11-22 29-35 61-36" id="M"/><path d="M135-143c-3-34-86-38-87 0 15 53 115 12 119 90S17 21 10-45l28-5c4 36 97 45 98 0-10-56-113-15-118-90-4-57 82-63 122-42 12 7 21 19 24 35" id="N"/><path d="M84 4C-5 8 30-112 23-190h32v120c0 31 7 50 39 49 72-2 45-101 50-169h31l1 190h-30c-1-10 1-25-2-33-11 22-28 36-60 37" id="O"/><path d="M210-169c-67 3-38 105-44 169h-31v-121c0-29-5-50-35-48C34-165 62-65 56 0H25l-1-190h30c1 10-1 24 2 32 10-44 99-50 107 0 11-21 27-35 58-36 85-2 47 119 55 194h-31v-121c0-29-5-49-35-48" id="P"/><path d="M100-194c63 0 86 42 84 106H49c0 40 14 67 53 68 26 1 43-12 49-29l28 8c-11 28-37 45-77 45C44 4 14-33 15-96c1-61 26-98 85-98zm52 81c6-60-76-77-97-28-3 7-6 17-6 28h103" id="Q"/><path d="M114-163C36-179 61-72 57 0H25l-1-190h30c1 12-1 29 2 39 6-27 23-49 58-41v29" id="R"/><g id="a"><use transform="matrix(0.05,0,0,0.05,0,0)" xlink:href="#I"/><use transform="matrix(0.05,0,0,0.05,9,0)" xlink:href="#J"/><use transform="matrix(0.05,0,0,0.05,14,0)" xlink:href="#K"/><use transform="matrix(0.05,0,0,0.05,26.950000000000003,0)" xlink:href="#L"/><use transform="matrix(0.05,0,0,0.05,36.95,0)" xlink:href="#M"/><use transform="matrix(0.05,0,0,0.05,46.95,0)" xlink:href="#N"/><use transform="matrix(0.05,0,0,0.05,55.95,0)" xlink:href="#O"/><use transform="matrix(0.05,0,0,0.05,65.95,0)" xlink:href="#P"/><use transform="matrix(0.05,0,0,0.05,80.9,0)" xlink:href="#Q"/><use transform="matrix(0.05,0,0,0.05,90.9,0)" xlink:href="#R"/><path d="M-.9 1.25h98.65v1.32H-.9z"/></g><path d="M115-194c55 1 70 41 70 98S169 2 115 4C84 4 66-9 55-30l1 105H24l-1-265h31l2 30c10-21 28-34 59-34zm-8 174c40 0 45-34 45-75s-6-73-45-74c-42 0-51 32-51 76 0 43 10 73 51 73" id="S"/><path d="M30-248c87 1 191-15 191 75 0 78-77 80-158 76V0H30v-248zm33 125c57 0 124 11 124-50 0-59-68-47-124-48v98" id="T"/><path d="M85-194c31 0 48 13 60 33l-1-100h32l1 261h-30c-2-10 0-23-3-31C134-8 116 4 85 4 32 4 16-35 15-94c0-66 23-100 70-100zm9 24c-40 0-46 34-46 75 0 40 6 74 45 74 42 0 51-32 51-76 0-42-9-74-50-73" id="U"/><g id="b"><use transform="matrix(0.05,0,0,0.05,0,0)" xlink:href="#S"/><use transform="matrix(0.05,0,0,0.05,10,0)" xlink:href="#J"/><use transform="matrix(0.05,0,0,0.05,15,0)" xlink:href="#T"/><use transform="matrix(0.05,0,0,0.05,27,0)" xlink:href="#R"/><use transform="matrix(0.05,0,0,0.05,32.95,0)" xlink:href="#L"/><use transform="matrix(0.05,0,0,0.05,42.95,0)" xlink:href="#U"/><use transform="matrix(0.05,0,0,0.05,52.95,0)" xlink:href="#O"/><use transform="matrix(0.05,0,0,0.05,62.95,0)" xlink:href="#I"/><use transform="matrix(0.05,0,0,0.05,71.95,0)" xlink:href="#Q"/><use transform="matrix(0.05,0,0,0.05,81.95,0)" xlink:href="#R"/><path d="M-.9 1.25h89.7v1.32H-.9z"/></g><path d="M101-234c-31-9-42 10-38 44h38v23H63V0H32v-167H5v-23h27c-7-52 17-82 69-68v24" id="V"/><path d="M30 0v-248h187v28H63v79h144v27H63v87h162V0H30" id="W"/><path d="M108 0H70L1-190h34L89-25l56-165h34" id="X"/><path d="M59-47c-2 24 18 29 38 22v24C64 9 27 4 27-40v-127H5v-23h24l9-43h21v43h35v23H59v120" id="Y"/><path d="M24 0v-261h32V0H24" id="Z"/><g id="c"><use transform="matrix(0.05,0,0,0.05,0,0)" xlink:href="#Q"/><use transform="matrix(0.05,0,0,0.05,10,0)" xlink:href="#S"/><use transform="matrix(0.05,0,0,0.05,20,0)" xlink:href="#V"/><use transform="matrix(0.05,0,0,0.05,25,0)" xlink:href="#U"/><use transform="matrix(0.05,0,0,0.05,35,0)" xlink:href="#J"/><use transform="matrix(0.05,0,0,0.05,40,0)" xlink:href="#W"/><use transform="matrix(0.05,0,0,0.05,52,0)" xlink:href="#X"/><use transform="matrix(0.05,0,0,0.05,61,0)" xlink:href="#Q"/><use transform="matrix(0.05,0,0,0.05,71,0)" xlink:href="#M"/><use transform="matrix(0.05,0,0,0.05,81,0)" xlink:href="#Y"/><use transform="matrix(0.05,0,0,0.05,86,0)" xlink:href="#Z"/><use transform="matrix(0.05,0,0,0.05,89.95,0)" xlink:href="#L"/><use transform="matrix(0.05,0,0,0.05,99.95,0)" xlink:href="#L"/><use transform="matrix(0.05,0,0,0.05,109.95,0)" xlink:href="#S"/><path d="M-.9 1.25h121.75v1.32H-.9z"/></g><g id="d"><use transform="matrix(0.05,0,0,0.05,0,0)" xlink:href="#Q"/><use transform="matrix(0.05,0,0,0.05,10,0)" xlink:href="#V"/><use transform="matrix(0.05,0,0,0.05,15,0)" xlink:href="#U"/><use transform="matrix(0.05,0,0,0.05,25,0)" xlink:href="#J"/><use transform="matrix(0.05,0,0,0.05,30,0)" xlink:href="#W"/><use transform="matrix(0.05,0,0,0.05,42,0)" xlink:href="#X"/><use transform="matrix(0.05,0,0,0.05,51,0)" xlink:href="#Q"/><use transform="matrix(0.05,0,0,0.05,61,0)" xlink:href="#M"/><use transform="matrix(0.05,0,0,0.05,71,0)" xlink:href="#V"/><use transform="matrix(0.05,0,0,0.05,76,0)" xlink:href="#U"/><path d="M-.9 1.25h87.8v1.32H-.9z"/></g><path d="M-5 72V49h209v23H-5" id="aa"/><path d="M206 0h-36l-40-164L89 0H53L-1-190h32L70-26l43-164h34l41 164 42-164h31" id="ab"/><path d="M141-36C126-15 110 5 73 4 37 3 15-17 15-53c-1-64 63-63 125-63 3-35-9-54-41-54-24 1-41 7-42 31l-33-3c5-37 33-52 76-52 45 0 72 20 72 64v82c-1 20 7 32 28 27v20c-31 9-61-2-59-35zM48-53c0 20 12 33 32 33 41-3 63-29 60-74-43 2-92-5-92 41" id="ac"/><path d="M24-231v-30h32v30H24zM24 0v-190h32V0H24" id="ad"/><path d="M87 75C49 33 22-17 22-94c0-76 28-126 65-167h31c-38 41-64 92-64 168S80 34 118 75H87" id="ae"/><path d="M33-261c38 41 65 92 65 168S71 34 33 75H2C39 34 66-17 66-93S39-220 2-261h31" id="af"/><g id="e"><use transform="matrix(0.05,0,0,0.05,0,0)" xlink:href="#Q"/><use transform="matrix(0.05,0,0,0.05,10,0)" xlink:href="#S"/><use transform="matrix(0.05,0,0,0.05,20,0)" xlink:href="#L"/><use transform="matrix(0.05,0,0,0.05,30,0)" xlink:href="#Z"/><use transform="matrix(0.05,0,0,0.05,33.95,0)" xlink:href="#Z"/><use transform="matrix(0.05,0,0,0.05,37.900000000000006,0)" xlink:href="#aa"/><use transform="matrix(0.05,0,0,0.05,47.900000000000006,0)" xlink:href="#ab"/><use transform="matrix(0.05,0,0,0.05,60.85,0)" xlink:href="#ac"/><use transform="matrix(0.05,0,0,0.05,70.85000000000001,0)" xlink:href="#ad"/><use transform="matrix(0.05,0,0,0.05,74.80000000000001,0)" xlink:href="#Y"/><use transform="matrix(0.05,0,0,0.05,79.80000000000001,0)" xlink:href="#ae"/><use transform="matrix(0.05,0,0,0.05,85.75000000000001,0)" xlink:href="#af"/></g><path d="M179-190L93 31C79 59 56 82 12 73V49c39 6 53-20 64-50L1-190h34L92-34l54-156h33" id="ag"/><g id="f"><use transform="matrix(0.05,0,0,0.05,0,0)" xlink:href="#R"/><use transform="matrix(0.05,0,0,0.05,5.95,0)" xlink:href="#Q"/><use transform="matrix(0.05,0,0,0.05,15.949999999999998,0)" xlink:href="#ac"/><use transform="matrix(0.05,0,0,0.05,25.950000000000003,0)" xlink:href="#U"/><use transform="matrix(0.05,0,0,0.05,35.95,0)" xlink:href="#ag"/></g><g id="g"><use transform="matrix(0.05,0,0,0.05,0,0)" xlink:href="#V"/><use transform="matrix(0.05,0,0,0.05,5,0)" xlink:href="#U"/></g><g id="h"><use transform="matrix(0.05,0,0,0.05,0,0)" xlink:href="#Z"/><use transform="matrix(0.05,0,0,0.05,3.95,0)" xlink:href="#ad"/><use transform="matrix(0.05,0,0,0.05,7.9,0)" xlink:href="#N"/><use transform="matrix(0.05,0,0,0.05,16.9,0)" xlink:href="#Y"/><use transform="matrix(0.05,0,0,0.05,21.9,0)" xlink:href="#J"/></g><path d="M26 75v-336h71v23H56V52h41v23H26" id="ah"/><path d="M3 75V52h41v-290H3v-23h71V75H3" id="ai"/><g id="i"><use transform="matrix(0.05,0,0,0.05,0,0)" xlink:href="#ah"/><use transform="matrix(0.05,0,0,0.05,5,0)" xlink:href="#ai"/></g><g id="j"><use transform="matrix(0.05,0,0,0.05,0,0)" xlink:href="#Q"/><use transform="matrix(0.05,0,0,0.05,10,0)" xlink:href="#X"/><use transform="matrix(0.05,0,0,0.05,19,0)" xlink:href="#Q"/><use transform="matrix(0.05,0,0,0.05,29,0)" xlink:href="#M"/><use transform="matrix(0.05,0,0,0.05,39,0)" xlink:href="#Y"/><use transform="matrix(0.05,0,0,0.05,44,0)" xlink:href="#V"/><use transform="matrix(0.05,0,0,0.05,49,0)" xlink:href="#U"/><use transform="matrix(0.05,0,0,0.05,59,0)" xlink:href="#ae"/><use transform="matrix(0.05,0,0,0.05,64.95,0)" xlink:href="#af"/></g><g id="k"><use transform="matrix(0.05,0,0,0.05,0,0)" xlink:href="#Q"/><use transform="matrix(0.05,0,0,0.05,10,0)" xlink:href="#S"/><use transform="matrix(0.05,0,0,0.05,20,0)" xlink:href="#L"/><use transform="matrix(0.05,0,0,0.05,30,0)" xlink:href="#Z"/><use transform="matrix(0.05,0,0,0.05,33.95,0)" xlink:href="#Z"/><use transform="matrix(0.05,0,0,0.05,37.900000000000006,0)" xlink:href="#aa"/><use transform="matrix(0.05,0,0,0.05,47.900000000000006,0)" xlink:href="#I"/><use transform="matrix(0.05,0,0,0.05,56.900000000000006,0)" xlink:href="#Y"/><use transform="matrix(0.05,0,0,0.05,61.900000000000006,0)" xlink:href="#Z"/><use transform="matrix(0.05,0,0,0.05,65.85000000000001,0)" xlink:href="#ae"/><use transform="matrix(0.05,0,0,0.05,71.80000000000001,0)" xlink:href="#af"/></g><g id="l"><use transform="matrix(0.05,0,0,0.05,0,0)" xlink:href="#Y"/><use transform="matrix(0.05,0,0,0.05,5,0)" xlink:href="#L"/></g><path d="M205 0l-28-72H64L36 0H1l101-248h38L239 0h-34zm-38-99l-47-123c-12 45-31 82-46 123h93" id="aj"/><path d="M30-248c118-7 216 8 213 122C240-48 200 0 122 0H30v-248zM63-27c89 8 146-16 146-99s-60-101-146-95v194" id="ak"/><g id="m"><use transform="matrix(0.05,0,0,0.05,0,0)" xlink:href="#aj"/><use transform="matrix(0.05,0,0,0.05,12,0)" xlink:href="#ak"/><use transform="matrix(0.05,0,0,0.05,24.950000000000003,0)" xlink:href="#ak"/></g><g id="n"><use transform="matrix(0.05,0,0,0.05,0,0)" xlink:href="#Q"/><use transform="matrix(0.05,0,0,0.05,10,0)" xlink:href="#V"/><use transform="matrix(0.05,0,0,0.05,15,0)" xlink:href="#U"/></g><g id="o"><use transform="matrix(0.05,0,0,0.05,0,0)" xlink:href="#ab"/><use transform="matrix(0.05,0,0,0.05,12.950000000000001,0)" xlink:href="#R"/><use transform="matrix(0.05,0,0,0.05,18.900000000000002,0)" xlink:href="#ad"/><use transform="matrix(0.05,0,0,0.05,22.85,0)" xlink:href="#Y"/><use transform="matrix(0.05,0,0,0.05,27.85,0)" xlink:href="#Q"/><use transform="matrix(0.05,0,0,0.05,37.85,0)" xlink:href="#ae"/><use transform="matrix(0.05,0,0,0.05,43.800000000000004,0)" xlink:href="#af"/></g><path d="M143 0L79-87 56-68V0H24v-261h32v163l83-92h37l-77 82L181 0h-38" id="al"/><g id="p"><use transform="matrix(0.05,0,0,0.05,0,0)" xlink:href="#ab"/><use transform="matrix(0.05,0,0,0.05,12.950000000000001,0)" xlink:href="#ac"/><use transform="matrix(0.05,0,0,0.05,22.950000000000003,0)" xlink:href="#al"/><use transform="matrix(0.05,0,0,0.05,31.950000000000003,0)" xlink:href="#Q"/></g><g id="q"><use transform="matrix(0.05,0,0,0.05,0,0)" xlink:href="#O"/><use transform="matrix(0.05,0,0,0.05,10,0)" xlink:href="#S"/></g><g id="r"><use transform="matrix(0.05,0,0,0.05,0,0)" xlink:href="#Q"/><use transform="matrix(0.05,0,0,0.05,10,0)" xlink:href="#S"/><use transform="matrix(0.05,0,0,0.05,20,0)" xlink:href="#L"/><use transform="matrix(0.05,0,0,0.05,30,0)" xlink:href="#Z"/><use transform="matrix(0.05,0,0,0.05,33.95,0)" xlink:href="#Z"/><use transform="matrix(0.05,0,0,0.05,37.900000000000006,0)" xlink:href="#aa"/><use transform="matrix(0.05,0,0,0.05,47.900000000000006,0)" xlink:href="#ab"/><use transform="matrix(0.05,0,0,0.05,60.85,0)" xlink:href="#ac"/><use transform="matrix(0.05,0,0,0.05,70.85000000000001,0)" xlink:href="#ad"/><use transform="matrix(0.05,0,0,0.05,74.80000000000001,0)" xlink:href="#Y"/><use transform="matrix(0.05,0,0,0.05,79.80000000000001,0)" xlink:href="#ae"/><use transform="matrix(0.05,0,0,0.05,85.75000000000001,0)" xlink:href="#af"/></g><path d="M68-38c1 34 0 65-14 84H32c9-13 17-26 17-46H33v-38h35" id="am"/><g id="s"><use transform="matrix(0.05,0,0,0.05,0,0)" xlink:href="#ah"/><use transform="matrix(0.05,0,0,0.05,5,0)" xlink:href="#Q"/><use transform="matrix(0.05,0,0,0.05,15,0)" xlink:href="#V"/><use transform="matrix(0.05,0,0,0.05,20,0)" xlink:href="#U"/><use transform="matrix(0.05,0,0,0.05,30,0)" xlink:href="#am"/></g><path d="M33 0v-38h34V0H33" id="an"/><g id="t"><use transform="matrix(0.05,0,0,0.05,0,0)" xlink:href="#an"/><use transform="matrix(0.05,0,0,0.05,5,0)" xlink:href="#an"/><use transform="matrix(0.05,0,0,0.05,10,0)" xlink:href="#an"/><use transform="matrix(0.05,0,0,0.05,15,0)" xlink:href="#ai"/></g><g id="u"><use transform="matrix(0.05,0,0,0.05,0,0)" xlink:href="#R"/><use transform="matrix(0.05,0,0,0.05,5.95,0)" xlink:href="#Q"/><use transform="matrix(0.05,0,0,0.05,15.949999999999998,0)" xlink:href="#ac"/><use transform="matrix(0.05,0,0,0.05,25.950000000000003,0)" xlink:href="#U"/><use transform="matrix(0.05,0,0,0.05,35.95,0)" xlink:href="#ae"/><use transform="matrix(0.05,0,0,0.05,41.900000000000006,0)" xlink:href="#af"/></g><g id="v"><use transform="matrix(0.05,0,0,0.05,0,0)" xlink:href="#I"/><use transform="matrix(0.05,0,0,0.05,9,0)" xlink:href="#Z"/><use transform="matrix(0.05,0,0,0.05,12.949999999999998,0)" xlink:href="#L"/><use transform="matrix(0.05,0,0,0.05,22.95,0)" xlink:href="#N"/><use transform="matrix(0.05,0,0,0.05,31.950000000000003,0)" xlink:href="#Q"/><use transform="matrix(0.05,0,0,0.05,41.95,0)" xlink:href="#ae"/><use transform="matrix(0.05,0,0,0.05,47.900000000000006,0)" xlink:href="#af"/></g><g id="w"><use transform="matrix(0.05,0,0,0.05,0,0)" xlink:href="#S"/><use transform="matrix(0.05,0,0,0.05,10,0)" xlink:href="#R"/><use transform="matrix(0.05,0,0,0.05,15.949999999999998,0)" xlink:href="#Q"/><use transform="matrix(0.05,0,0,0.05,25.950000000000003,0)" xlink:href="#S"/><use transform="matrix(0.05,0,0,0.05,35.95,0)" xlink:href="#ac"/><use transform="matrix(0.05,0,0,0.05,45.95,0)" xlink:href="#R"/><use transform="matrix(0.05,0,0,0.05,51.900000000000006,0)" xlink:href="#Q"/></g><g id="x"><use transform="matrix(0.05,0,0,0.05,0,0)" xlink:href="#Y"/><use transform="matrix(0.05,0,0,0.05,5,0)" xlink:href="#ac"/><use transform="matrix(0.05,0,0,0.05,15,0)" xlink:href="#N"/><use transform="matrix(0.05,0,0,0.05,24,0)" xlink:href="#al"/></g><path fill="#fff" d="M155 0h-10L58-199v181l32 5V0H6v-13l30-5v-200l-30-5v-13h93l67 155 69-155h94v13l-30 5v200l30 5V0H212v-13l32-5v-181" id="ao"/><path fill="#fff" d="M6-13l30-5v-200l-30-5v-13h201v60h-16l-6-38-93-2v86h61l6-26h16v73h-16l-6-27H92v91l104-3 10-44h16l-4 66H6v-13" id="ap"/><path fill="#fff" d="M185-72C185 13 82 14 19-9v-63h16c2 37 21 58 61 58 46 0 69-51 31-71-42-23-106-23-106-90 0-69 87-70 148-56v56h-16l-7-32c-26-25-110-13-82 35 39 34 121 26 121 100" id="aq"/><path fill="#fff" d="M75-13V0H4v-13l17-5 84-220h51l83 220 18 5V0H152v-13l28-5-23-61H67L45-18zm38-189L74-98h76" id="ar"/><path fill="#fff" d="M76-115c0 75 46 117 116 94v-68l-30-5v-13h108v13l-23 5v77C218-3 181 4 145 4 67 4 18-36 18-115c0-83 46-123 130-123 37-1 66 6 91 15v54h-15c2-41-32-51-70-51-60 0-78 41-78 105" id="as"/><g id="y"><use transform="matrix(0.04320987654320988,0,0,0.04320987654320988,0,0)" xlink:href="#ao"/><use transform="matrix(0.04320987654320988,0,0,0.04320987654320988,14.648148148148149,0)" xlink:href="#ap"/><use transform="matrix(0.04320987654320988,0,0,0.04320987654320988,25.018518518518523,0)" xlink:href="#aq"/><use transform="matrix(0.04320987654320988,0,0,0.04320987654320988,33.660493827160494,0)" xlink:href="#aq"/><use transform="matrix(0.04320987654320988,0,0,0.04320987654320988,42.30246913580247,0)" xlink:href="#ar"/><use transform="matrix(0.04320987654320988,0,0,0.04320987654320988,53.49382716049383,0)" xlink:href="#as"/><use transform="matrix(0.04320987654320988,0,0,0.04320987654320988,65.5925925925926,0)" xlink:href="#ap"/></g><path d="M141 0L90-78 38 0H4l68-98-65-92h35l48 74 47-74h35l-64 92 68 98h-35" id="at"/><g id="z"><use transform="matrix(0.05,0,0,0.05,0,0)" xlink:href="#Q"/><use transform="matrix(0.05,0,0,0.05,10,0)" xlink:href="#at"/><use transform="matrix(0.05,0,0,0.05,19,0)" xlink:href="#Q"/><use transform="matrix(0.05,0,0,0.05,29,0)" xlink:href="#I"/><use transform="matrix(0.05,0,0,0.05,38,0)" xlink:href="#O"/><use transform="matrix(0.05,0,0,0.05,48,0)" xlink:href="#Y"/><use transform="matrix(0.05,0,0,0.05,53,0)" xlink:href="#Q"/></g><path fill="#fff" d="M128-223l-36 5v199l103-3 14-49h16l-7 71H6v-13l30-5v-200l-30-5v-13h122v13" id="au"/><path fill="#fff" d="M140-221c-55 0-64 47-64 103S8-14 140-14c56 0 64-48 64-104s-9-103-64-103zm0 225C61 4 18-36 18-118c0-81 41-120 122-120 80 0 122 39 122 120C262-36 219 4 140 4" id="av"/><path fill="#fff" d="M92-112c43 4 61-13 61-54s-18-54-61-50v104zm118-54c0 63-50 78-118 74v74l39 5V0H8v-13l28-5v-200l-30-5v-13c88 3 205-20 204 70" id="aw"/><g id="A"><use transform="matrix(0.04320987654320988,0,0,0.04320987654320988,0,0)" xlink:href="#au"/><use transform="matrix(0.04320987654320988,0,0,0.04320987654320988,10.370370370370372,0)" xlink:href="#av"/><use transform="matrix(0.04320987654320988,0,0,0.04320987654320988,22.46913580246914,0)" xlink:href="#av"/><use transform="matrix(0.04320987654320988,0,0,0.04320987654320988,34.567901234567906,0)" xlink:href="#aw"/></g><path fill="#fff" d="M27 48v-298h80v12l-36 7V29l36 7v12H27" id="ax"/><path fill="#fff" d="M76-116c0 86 71 126 135 84l6-39h16l-1 60C138 21 18 1 18-115c0-117 106-141 210-112l1 57h-16l-5-34c-13-9-32-16-54-16-60 0-78 42-78 104" id="ay"/><path fill="#fff" d="M203-218l-32-5v-13h84v13l-30 5V0h-21L59-189v171l32 5V0H7v-13l30-5v-200l-30-5v-13h81L203-85v-133" id="az"/><path fill="#fff" d="M92-20c74 11 92-29 92-98 0-66-23-103-92-98v196zm150-99C242 9 136 6 6 0v-13l31-5v-200l-31-5v-13h112c81 0 124 34 124 117" id="aA"/><path fill="#fff" d="M98-18l30 5V0H12v-13l30-5v-200l-30-5v-13h116v13l-30 5v200" id="aB"/><path fill="#fff" d="M54 0v-13l38-5v-199l-66 3-4 44H6v-66h229v66h-17l-4-44c-17-2-44-3-67-3v199l38 5V0H54" id="aC"/><path fill="#fff" d="M13 48V36l36-7v-260l-36-7v-12h80V48H13" id="aD"/><g id="B"><use transform="matrix(0.04320987654320988,0,0,0.04320987654320988,0,0)" xlink:href="#ax"/><use transform="matrix(0.04320987654320988,0,0,0.04320987654320988,5.1419753086419755,0)" xlink:href="#ay"/><use transform="matrix(0.04320987654320988,0,0,0.04320987654320988,16.333333333333336,0)" xlink:href="#av"/><use transform="matrix(0.04320987654320988,0,0,0.04320987654320988,28.4320987654321,0)" xlink:href="#az"/><use transform="matrix(0.04320987654320988,0,0,0.04320987654320988,39.62345679012346,0)" xlink:href="#aA"/><use transform="matrix(0.04320987654320988,0,0,0.04320987654320988,50.81481481481482,0)" xlink:href="#aB"/><use transform="matrix(0.04320987654320988,0,0,0.04320987654320988,56.8641975308642,0)" xlink:href="#aC"/><use transform="matrix(0.04320987654320988,0,0,0.04320987654320988,67.23456790123457,0)" xlink:href="#aB"/><use transform="matrix(0.04320987654320988,0,0,0.04320987654320988,73.28395061728395,0)" xlink:href="#av"/><use transform="matrix(0.04320987654320988,0,0,0.04320987654320988,85.38271604938271,0)" xlink:href="#az"/><use transform="matrix(0.04320987654320988,0,0,0.04320987654320988,96.57407407407406,0)" xlink:href="#aD"/></g><g id="C"><use transform="matrix(0.05,0,0,0.05,0,0)" xlink:href="#Q"/><use transform="matrix(0.05,0,0,0.05,10,0)" xlink:href="#X"/><use transform="matrix(0.05,0,0,0.05,19,0)" xlink:href="#Q"/><use transform="matrix(0.05,0,0,0.05,29,0)" xlink:href="#M"/><use transform="matrix(0.05,0,0,0.05,39,0)" xlink:href="#Y"/><use transform="matrix(0.05,0,0,0.05,44,0)" xlink:href="#V"/><use transform="matrix(0.05,0,0,0.05,49,0)" xlink:href="#U"/><use transform="matrix(0.05,0,0,0.05,59,0)" xlink:href="#aa"/><use transform="matrix(0.05,0,0,0.05,69,0)" xlink:href="#ab"/><use transform="matrix(0.05,0,0,0.05,81.95,0)" xlink:href="#R"/><use transform="matrix(0.05,0,0,0.05,87.9,0)" xlink:href="#ad"/><use transform="matrix(0.05,0,0,0.05,91.85000000000001,0)" xlink:href="#Y"/><use transform="matrix(0.05,0,0,0.05,96.85000000000001,0)" xlink:href="#Q"/><use transform="matrix(0.05,0,0,0.05,106.85000000000001,0)" xlink:href="#ae"/><use transform="matrix(0.05,0,0,0.05,112.80000000000001,0)" xlink:href="#af"/></g><g id="D"><use transform="matrix(0.05,0,0,0.05,0,0)" xlink:href="#Q"/><use transform="matrix(0.05,0,0,0.05,10,0)" xlink:href="#X"/><use transform="matrix(0.05,0,0,0.05,19,0)" xlink:href="#Q"/><use transform="matrix(0.05,0,0,0.05,29,0)" xlink:href="#M"/><use transform="matrix(0.05,0,0,0.05,39,0)" xlink:href="#Y"/><use transform="matrix(0.05,0,0,0.05,44,0)" xlink:href="#V"/><use transform="matrix(0.05,0,0,0.05,49,0)" xlink:href="#U"/><use transform="matrix(0.05,0,0,0.05,59,0)" xlink:href="#aa"/><use transform="matrix(0.05,0,0,0.05,69,0)" xlink:href="#R"/><use transform="matrix(0.05,0,0,0.05,74.95,0)" xlink:href="#Q"/><use transform="matrix(0.05,0,0,0.05,84.95,0)" xlink:href="#ac"/><use transform="matrix(0.05,0,0,0.05,94.95,0)" xlink:href="#U"/><use transform="matrix(0.05,0,0,0.05,104.95,0)" xlink:href="#ae"/><use transform="matrix(0.05,0,0,0.05,110.9,0)" xlink:href="#af"/></g><g id="E"><use transform="matrix(0.05,0,0,0.05,0,0)" xlink:href="#Q"/><use transform="matrix(0.05,0,0,0.05,10,0)" xlink:href="#X"/><use transform="matrix(0.05,0,0,0.05,19,0)" xlink:href="#Q"/><use transform="matrix(0.05,0,0,0.05,29,0)" xlink:href="#M"/><use transform="matrix(0.05,0,0,0.05,39,0)" xlink:href="#Y"/><use transform="matrix(0.05,0,0,0.05,44,0)" xlink:href="#V"/><use transform="matrix(0.05,0,0,0.05,49,0)" xlink:href="#U"/><use transform="matrix(0.05,0,0,0.05,59,0)" xlink:href="#aa"/><use transform="matrix(0.05,0,0,0.05,69,0)" xlink:href="#R"/><use transform="matrix(0.05,0,0,0.05,74.95,0)" xlink:href="#Q"/><use transform="matrix(0.05,0,0,0.05,84.95,0)" xlink:href="#Z"/><use transform="matrix(0.05,0,0,0.05,88.9,0)" xlink:href="#Q"/><use transform="matrix(0.05,0,0,0.05,98.9,0)" xlink:href="#ac"/><use transform="matrix(0.05,0,0,0.05,108.9,0)" xlink:href="#N"/><use transform="matrix(0.05,0,0,0.05,117.9,0)" xlink:href="#Q"/><use transform="matrix(0.05,0,0,0.05,127.9,0)" xlink:href="#ae"/><use transform="matrix(0.05,0,0,0.05,133.85,0)" xlink:href="#af"/></g><g id="F"><use transform="matrix(0.05,0,0,0.05,0,0)" xlink:href="#Q"/><use transform="matrix(0.05,0,0,0.05,10,0)" xlink:href="#S"/><use transform="matrix(0.05,0,0,0.05,20,0)" xlink:href="#aa"/><use transform="matrix(0.05,0,0,0.05,30,0)" xlink:href="#S"/><use transform="matrix(0.05,0,0,0.05,40,0)" xlink:href="#L"/><use transform="matrix(0.05,0,0,0.05,50,0)" xlink:href="#Z"/><use transform="matrix(0.05,0,0,0.05,53.95,0)" xlink:href="#Z"/><use transform="matrix(0.05,0,0,0.05,57.900000000000006,0)" xlink:href="#ae"/><use transform="matrix(0.05,0,0,0.05,63.85,0)" xlink:href="#af"/></g><g id="G"><use transform="matrix(0.05925925925925927,0,0,0.05925925925925927,0,0)" xlink:href="#Q"/><use transform="matrix(0.05925925925925927,0,0,0.05925925925925927,11.851851851851853,0)" xlink:href="#S"/><use transform="matrix(0.05925925925925927,0,0,0.05925925925925927,23.703703703703706,0)" xlink:href="#aa"/><use transform="matrix(0.05925925925925927,0,0,0.05925925925925927,35.55555555555556,0)" xlink:href="#S"/><use transform="matrix(0.05925925925925927,0,0,0.05925925925925927,47.40740740740741,0)" xlink:href="#L"/><use transform="matrix(0.05925925925925927,0,0,0.05925925925925927,59.25925925925927,0)" xlink:href="#Z"/><use transform="matrix(0.05925925925925927,0,0,0.05925925925925927,63.94074074074075,0)" xlink:href="#Z"/><use transform="matrix(0.05925925925925927,0,0,0.05925925925925927,68.62222222222223,0)" xlink:href="#ae"/><use transform="matrix(0.05925925925925927,0,0,0.05925925925925927,75.67407407407408,0)" xlink:href="#af"/></g><g id="H"><use transform="matrix(0.05,0,0,0.05,0,0)" xlink:href="#Q"/><use transform="matrix(0.05,0,0,0.05,10,0)" xlink:href="#S"/><use transform="matrix(0.05,0,0,0.05,20,0)" xlink:href="#aa"/><use transform="matrix(0.05,0,0,0.05,30,0)" xlink:href="#ad"/><use transform="matrix(0.05,0,0,0.05,33.95,0)" xlink:href="#M"/><use transform="matrix(0.05,0,0,0.05,43.95,0)" xlink:href="#N"/><use transform="matrix(0.05,0,0,0.05,52.95,0)" xlink:href="#Q"/><use transform="matrix(0.05,0,0,0.05,62.95,0)" xlink:href="#R"/><use transform="matrix(0.05,0,0,0.05,68.9,0)" xlink:href="#Y"/><use transform="matrix(0.05,0,0,0.05,73.9,0)" xlink:href="#ae"/><use transform="matrix(0.05,0,0,0.05,79.85000000000001,0)" xlink:href="#af"/></g></defs></g></svg>